<svg
  width="573.95"
  height="82.94305032976003"
  viewBox="0 0 370.3656957928803 53.522537758629596"
  class="css-1j8o68f"
>
  <defs id="SvgjsDefs1019">
    <linearGradient id="SvgjsLinearGradient1024">
      <stop id="SvgjsStop1025" stop-color="#8f5e25" offset="0"></stop>
      <stop id="SvgjsStop1026" stop-color="#fbf4a1" offset="0.5"></stop>
      <stop id="SvgjsStop1027" stop-color="#8f5e25" offset="1"></stop>
    </linearGradient>
    <linearGradient id="SvgjsLinearGradient1028">
      <stop id="SvgjsStop1029" stop-color="#8f5e25" offset="0"></stop>
      <stop id="SvgjsStop1030" stop-color="#fbf4a1" offset="0.5"></stop>
      <stop id="SvgjsStop1031" stop-color="#8f5e25" offset="1"></stop>
    </linearGradient>
  </defs>
  <g
    id="SvgjsG1020"
    featurekey="symbolFeature-0"
    transform="matrix(0.6150239786728895,0,0,0.6150239786728895,-1.2035623458717917,-2.7595366292987342)"
    fill="url(#SvgjsLinearGradient1024)"
  >
    <path
      xmlns="http://www.w3.org/2000/svg"
      d="M28.036,91.512c-0.38,0-0.764-0.104-1.096-0.324c-0.708-0.467-1.048-1.332-0.844-2.155l3.552-14.353H15.872  c-0.944,0-1.764-0.656-1.956-1.584L2,16.368c-0.116-0.556,0.004-1.132,0.34-1.588c0.332-0.456,0.84-0.752,1.404-0.813L91.828,4.5  c0.607-0.072,1.22,0.156,1.648,0.592c0.428,0.436,0.631,1.056,0.547,1.66l-7.836,58.191c-0.136,0.992-0.979,1.736-1.983,1.736  H61.216L29.256,91.1C28.892,91.376,28.464,91.512,28.036,91.512L28.036,91.512z"
    ></path>
  </g>
  <g
    id="SvgjsG1021"
    featurekey="nameFeature-0"
    transform="matrix(1.4752670986124858,0,0,1.4752670986124858,77,-10.814860877215981)"
    fill="url(#SvgjsLinearGradient1028)"
  >
    <path
      d="M9.36 40 l-9.36 0 l0 -28.04 l9.36 0 l0 21.8 l-3.12 0 l0 -18.68 l-3.12 0 l0 21.8 l6.24 0 l0 3.12 z M35.116 25.68 l0 -13.72 l9.36 0 l0 28.04 l-9.36 0 l-15 -17.36 l0 -4.8 l16.44 19.04 l4.8 0 l0 -21.8 l-3.12 0 l0 19 l-16.44 -19 l-4.8 0 l0 21.8 l3.12 0 l0 -9.44 l3.12 3.6 l0 8.96 l-9.36 0 l0 -28.04 l9.36 0 z M70.232 25.68 l0 -13.72 l9.36 0 l0 28.04 l-9.36 0 l-15 -17.36 l0 -4.8 l16.44 19.04 l4.8 0 l0 -21.8 l-3.12 0 l0 19 l-16.44 -19 l-4.8 0 l0 21.8 l3.12 0 l0 -9.44 l3.12 3.6 l0 8.96 l-9.36 0 l0 -28.04 l9.36 0 z M99.388 10.719999999999999 c8.4 0 15.24 6.84 15.24 15.28 s-6.84 15.24 -15.24 15.24 c-8.44 0 -15.28 -6.8 -15.28 -15.24 s6.84 -15.28 15.28 -15.28 z M99.388 38.16 c6.72 0 12.16 -5.44 12.16 -12.16 s-5.44 -12.2 -12.16 -12.2 c-6.76 0 -12.2 5.48 -12.2 12.2 s5.44 12.16 12.2 12.16 z M99.388 16.88 c5 0 9.08 4.12 9.08 9.12 s-4.08 9.08 -9.08 9.08 s-9.12 -4.08 -9.12 -9.08 s4.12 -9.12 9.12 -9.12 z M99.388 32 c3.32 0 6 -2.68 6 -6 c0 -3.36 -2.68 -6.04 -6 -6.04 c-3.36 0 -6.04 2.68 -6.04 6.04 c0 3.32 2.68 6 6.04 6 z M146.624 26 c1.92 1.4 3.12 3.64 3.12 6.2 c0 4.32 -3.48 7.8 -7.8 7.8 l-22.8 0 l0 -15.6 l9.32 0 l0 0.04 l0 6.2 l13.48 0 c0.84 0.04 1.48 0.72 1.48 1.56 s-0.64 1.52 -1.48 1.56 l-16.56 0 l0 -6.24 l-3.12 0 l0 9.36 l19.68 0 l0.04 0 c2.56 0 4.64 -2.08 4.64 -4.68 c0 -2.44 -1.96 -4.52 -4.4 -4.64 l-10.64 0 l0 -3.12 l10.52 0 c2.52 -0.12 4.52 -2.12 4.52 -4.68 c0 -2.6 -2.08 -4.68 -4.64 -4.68 l-0.04 0 l-19.68 0 l0 3.12 l19.68 0 c0.84 0.04 1.48 0.72 1.48 1.56 s-0.64 1.52 -1.48 1.56 l-22.8 0 l0 -9.36 l22.8 0 c4.32 0 7.8 3.48 7.8 7.8 c0 2.56 -1.2 4.8 -3.12 6.24 z M163.62 40 l-9.36 0 l0 -28.04 l9.36 0 l0 21.8 l-3.12 0 l0 -18.68 l-3.12 0 l0 21.8 l6.24 0 l0 3.12 z M187.536 11.96 l11.32 0 l-9.68 14 l9.68 14.04 l-11.32 0 l-4.04 -5.84 l-4.04 5.84 l-11.32 0 l13.48 -19.52 l-3.72 -5.4 l-3.8 0 l3.72 5.4 l-1.88 2.72 l-7.8 -11.24 l11.36 0 l5.92 8.52 l-11.32 16.4 l3.72 0 l5.68 -8.2 l5.68 8.2 l3.76 0 l-7.56 -10.92 l7.52 -10.88 l-3.8 0 l-1.8 2.64 l-1.92 -2.76 z"
    ></path>
  </g>
</svg>
